<svg id="Livello_1" data-name="Livello 1" xmlns="http://www.w3.org/2000/svg" viewBox="0 0 1920 1080"><defs><style>.cls-1{fill:#34e4ea;}.cls-2{opacity:0.8;}.cls-3{fill:#ecc30b;}.cls-4,.cls-5{fill:#2d2d2d;}.cls-4{stroke:#292b2c;stroke-miterlimit:10;stroke-width:4px;}.cls-6{fill:#d7263d;}.cls-7{fill:none;}</style></defs><title>prova-sfondo-guessr</title><path class="cls-1" d="M89.57,202.21C59.38,219.32,38.86,252.39,36.93,287c-2.33,41.86,20.4,81.12,24.52,122.85C66.79,464,40.7,515.79,31.64,569.4,20.85,633.28,34.44,698.47,48,761.82c9,42.07,19.16,86.44,48.82,117.59,40.5,42.52,114.59,46.86,159.77,9.35C333.19,825.15,306,691.8,375,620c35.74-37.22,93.51-53,117.17-98.86,28-54.33-6.54-119-42.27-168.58C422.68,314.81,394.2,278,365.74,241.26c-23.06-29.79-47.6-60.76-82.16-75.76-42.68-18.51-61.12,3.58-96.25,18.32C156.36,196.81,121.8,183.93,89.57,202.21Z"/><g class="cls-2"><path class="cls-3" d="M1684.7,22.59c-35.92,15.67-60.23,49.68-79.08,84s-34.52,71.22-61.08,100c-27.8,30.17-65.64,49.36-94.83,78.18-21.63,21.36-38.45,48.68-42.56,78.8s6,63,29.82,81.92c42.09,33.57,103.65,13.49,153.06-7.89L1775.5,357.4c49-21.2,102.18-46.36,124.19-95,18.38-40.65,9.62-89.94-14.26-127.63C1851.75,81.61,1752.4-6.94,1684.7,22.59Z"/></g><path class="cls-4" d="M1842.06,306c-13.14,37.28-40.38,69.92-75.41,87.91-49.09,25.2-112.64,21.16-158.15-10-13.73-9.42-26.13-21.2-38.12-32.59-18.52-17.6-37.66-35.79-61.62-44.9s-50.27-8.25-75.76-7.43c-21.65.7-44,1.41-65.19-3.82-39.62-9.8-76.75-49.34-86.37-92-7.22-32,1.82-60.3,25.48-79.68C1364.59,76.24,1471.87,61,1551.7,56.61c78.77-4.36,144.91,8.47,196.59,38.14,63.56,36.49,103.75,101.18,102.39,164.81A149.65,149.65,0,0,1,1842.06,306Zm-556.6-148.68c-4.8,13.62-5.48,29-1.78,45.33,9.44,41.85,45.85,80.65,84.69,90.25,20.85,5.16,43.07,4.45,64.55,3.75,25.73-.82,52.32-1.67,76.65,7.58s43.71,27.63,62.39,45.38c11.93,11.34,24.26,23.05,37.84,32.37,44.83,30.74,107.44,34.71,155.8,9.89s81.63-78,82.79-132.36c1.34-62.8-38.4-126.69-101.24-162.77-51.29-29.45-117-42.18-195.32-37.84-79.5,4.42-186.26,19.51-243.45,66.35A72.32,72.32,0,0,0,1285.46,157.32Z"/><path class="cls-1" d="M1596.38,677c-.06,0-.17,0-.12.09,7.12,12.52,27.34,20,41.14,16.93.2,0,.15-.3,0-.33C1621.73,691.57,1608.29,687.8,1596.38,677Z"/><path class="cls-1" d="M1843.29,558.36c-14.31-8.11-31.43-10-48.68-9.07-11.9-15.32-29.4-26.69-47.37-32.6-27.63-9.08-58.82-6.4-86.3,1.74-54.12,16-112.85,71.39-106.07,131.22-2.35,2.07-4.69,4.16-7,6.31-13.54,12.77-27.18,30-26.1,49.58.94,16.94,15.76,26.9,30.86,31.49l.36.15a3,3,0,0,0,.85.2,74.09,74.09,0,0,0,8,1.83c28.3,4.73,58.36.49,86.32-5.36A44.87,44.87,0,0,0,1659.59,750c15.79,13.61,48.69,2.49,65.27-3.13,23.26-7.87,49.9-20.35,66.71-38.85,8.85-9.75,9-21.93,5.1-33.29,24.84-15.72,47.11-35.33,60-60.47C1867.27,593.58,1864.5,570.38,1843.29,558.36Zm-260.08,24.35c19.11-27.82,49.82-47.46,81.84-56.94,24.11-7.14,50.36-8.76,74.84-2.63a89.22,89.22,0,0,1,37,19.34,64.86,64.86,0,0,1,7.42,7.71c-2.26.26-4.51.55-6.75.89-2.2-2.61-5.45-4.69-7.94-6.66a99.78,99.78,0,0,0-15.5-9.93c-10.35-5.43-22-8.49-33.71-7.68-.05,0-.07.08,0,.09a113.9,113.9,0,0,1,32.09,10.25,97,97,0,0,1,14,8.86,80.31,80.31,0,0,1,6.38,5.83c-2,.34-4.06.71-6.06,1.09a66.46,66.46,0,0,0-10.73-7.44c-6.53-3.86-13.44-7.17-20.91-8.69-.06,0-.11.07,0,.1,6.66,3.4,13,7.22,19.45,11a59.07,59.07,0,0,1,8,5.81l-3.27.68c-1.73-1.22-3.73-2.21-5.08-3-4.26-2.52-9.14-4.07-13.87-5.46a.08.08,0,0,0-.06.14q5.65,3.6,11.37,7.11c1.14.71,2.27,1.42,3.39,2.16-2.7.6-5.37,1.21-8,1.82-30.42,7.2-60.23,17.64-89,30a340.9,340.9,0,0,0-43.23,20.13,34.3,34.3,0,0,1,2.44-6.24c.07-.12-.09-.27-.2-.16a18.84,18.84,0,0,0-4.78,7.46c-.06.15-.12.32-.17.48-1.59.89-3.18,1.78-4.76,2.7.18-.78.35-1.57.57-2.33,1.47-5.07,3.94-10,6.16-14.74.07-.15-.09-.3-.22-.18-4.89,4.19-9.38,12.17-10.66,19.76q-3.95,2.39-7.82,4.87a110.5,110.5,0,0,1,4.77-14.77c3.24-7.88,8.36-14.45,13.21-21.36.08-.11-.07-.26-.18-.19-12.76,7.47-18.42,24.41-21.3,38.58l-.76.49q-4.47,2.87-8.83,5.9a140,140,0,0,1,9-25.14c5.79-12.2,14.37-21.7,22.79-32,.11-.13,0-.33-.17-.24-11.55,6.3-19.53,19.24-25.27,30.63-4,8-9,19.1-9.66,29.17q-3.26,2.33-6.43,4.75c0-.25.07-.5.1-.76a93.5,93.5,0,0,1,13.63-39.52c9-15.64,21.5-28.15,34.55-40.36a.12.12,0,0,0-.14-.19c-15.7,8.71-27.94,23.74-37.12,38.87a107.41,107.41,0,0,0-11,24.61c-1.71,5.62-3.87,13.51-3.54,20.09-1.95,1.55-3.86,3.13-5.76,4.75C1563.75,621.35,1570.27,601.55,1583.21,582.71ZM1533.79,714.9c-10.8-16.13,7.26-39.7,19.06-51.27a300.41,300.41,0,0,1,51.29-39.8.5.5,0,0,0,.33-.21l2.9-1.82c27-15.49,56-27.89,84.53-38.34a492.71,492.71,0,0,1,69.63-20.18c23.75-4.9,52.24-8.58,75.1,1.84,5.82,2.66,10.06,5.79,13,9.29-12-4.29-25.54-.68-37.46,2.11-40.89,9.54-80.66,24.65-119.4,40.63-40.63,16.76-80.86,35.57-118.29,58.7-12.77,7.89-26.86,16.39-36.18,28.39A19.55,19.55,0,0,0,1533.79,714.9Zm207.34-83.72a105.19,105.19,0,0,0-4.26-16.66c-.47-1.44-1-3.92-1.82-6.07q12.56-4.65,25.25-8.94a50.67,50.67,0,0,1,5.18,24.13c-.14,8.06-2.88,14.38-5.79,21.43a73.77,73.77,0,0,0-18.44,1.84C1742.67,641.78,1741.64,634.45,1741.13,631.18Zm-61,28.78a60.38,60.38,0,0,1-7-14.74c-.28-.82-1.42-6.59-2.77-10.41q11.34-5,22.76-9.79c2-.83,3.93-1.62,5.9-2.44.33.76.73,1.52,1.06,2.3a122.51,122.51,0,0,1,4.49,13c2,6.73,2.71,13.49,3.73,20.3-5.37,2.32-10.41,4.64-14.92,6.66-2,.91-4.1,1.83-6.19,2.78A49.17,49.17,0,0,1,1680.15,660Zm3.15,9.53a168.17,168.17,0,0,0-20,10.76c-13.1-2.69-24.14-16.87-29-28.69q16.28-8,32.86-15.33C1669.24,647.27,1674,662.32,1683.3,669.49Zm24.64-32.35c-.92-3.32-2.56-11.47-5.48-16q14.32-5.86,28.82-11.33c.46,1.2,1,2.37,1.32,3.3,1.49,4.46,2.77,9,3.85,13.58a58.56,58.56,0,0,1,1.71,13.63c0,3.32-1.19,5.43-2.37,7.9a191.24,191.24,0,0,0-23.75,8.4C1711.58,650.05,1709.63,643.22,1707.94,637.14Zm61.19-13.36c.35-8.44-1.14-17.92-5.48-25.39q14.63-4.86,29.41-9.16l.27-.08c1.31,4.37,2.25,8.26,1.93,13.3-.45,7-2.61,13.79-5.13,20.25a84.19,84.19,0,0,1-10,18.35c-1.64,2.28-4.48,4.43-6.73,6.71a40.28,40.28,0,0,0-9.69-2.37C1767.92,639.47,1768.85,630.41,1769.13,623.78Zm13.39,20.27a82.45,82.45,0,0,0,11.18-20.26,71.9,71.9,0,0,0,5.26-22.51c.23-3.88,0-9.24-1.91-13.18a281.67,281.67,0,0,1,31.72-7.42c4.15,11.65-3.49,26.78-8.69,37a86.89,86.89,0,0,1-15.59,20.87,167.83,167.83,0,0,1-19.08,17.18,33.85,33.85,0,0,0-7.67-5.86A60.53,60.53,0,0,0,1782.52,644.05Zm-139.61,67.17a140.06,140.06,0,0,1-47.9,8.66c-16.31.09-35.09-3.82-43.28-19.2,2.14-1.75,4.38-3.38,6.5-5a306.59,306.59,0,0,1,28.9-18.84c5.58,11.81,16.32,19.71,28.87,23.54,6.85,2.09,14,2.2,21.1,1.46a44.32,44.32,0,0,0,6.93-1.25A31.66,31.66,0,0,0,1642.91,711.22Zm-15.67,17.31c-24.79,4-57.77,8.46-81.37-3.9-4.44-4.09-6.08-9.26-1.27-16.49a28.73,28.73,0,0,1,4-4.73c8.21,15,25.93,19.64,42.16,20.36,16.76.75,36.69-1.74,52.47-8.72a52.11,52.11,0,0,0,1,5.5c.24,1.56.58,3.11,1,4.65C1639.25,726.43,1633.24,727.56,1627.24,728.53Zm19-33.16a33.66,33.66,0,0,1-8.35,2.33,47.86,47.86,0,0,1-19.07-.72c-12-2.77-23.08-10.83-28.31-22.09,1.51-.87,3-1.76,4.52-2.62q17.55-10,35.7-19a58.36,58.36,0,0,0,15.86,22c3.08,2.69,7.74,6.19,12.36,7.88a70.52,70.52,0,0,0-10.34,9A19.46,19.46,0,0,0,1646.29,695.37Zm133.3,14.31c-11,9.76-26.65,16.49-38.6,22.34-18.26,8.92-39.27,15.76-59.84,15.93-6.09-.78-11.92-2.41-11.86-9.88,0-6.07,4.74-10.29,8.92-13.91.61-.53,1.27-1,1.9-1.54,1.09,2.38,3.65,4.3,7.5,5.32,13.43,3.53,28.5-2.48,40.64-7.39,12.37-5,31.7-12.92,38.88-25.3,1.81-3.12,1.4-5.67-.15-7.57,7.21-.43,15.9.83,18,8.48C1786.52,701.71,1783.17,705.94,1779.59,709.68Zm-84.89,11c10.26-3.41,20.66-6.38,30.45-11,8.86-4.22,17.41-9.1,26.12-13.61.36-.18.76.29.44.57-14.94,13.3-36.53,24.52-57,24.28A.1.1,0,0,1,1694.7,720.65Zm96.63-30.54a14.52,14.52,0,0,0-5.44-5.94c-17.68-11.09-45.58-.22-63,6.49-19.17,7.37-46.68,18.1-58.19,36.45-3.14,5-3.93,9.86-3.05,14.11-8.55-8.32-11.82-22.92-10.79-35.36A18.85,18.85,0,0,1,1656,695.7c9.09-8.87,21.85-14.76,33.09-20.3a292.22,292.22,0,0,1,46-18c12.77-3.78,28.39-8.56,40.27-.47C1784.92,663.4,1792.47,677.79,1791.33,690.11Zm60.58-87.24c-10.16,24.92-43.16,52.26-57.1,61.51-.7.47-1.42.91-2.13,1.37-.44-.8-.88-1.6-1.35-2.38a42.26,42.26,0,0,0-4.24-5.92c2.55-1.26,4.93-3.35,7.1-4.93a117.28,117.28,0,0,0,12.79-11.4,88.86,88.86,0,0,0,17.13-23.64,97.55,97.55,0,0,0,8.59-24.15c.76-3.83,1.34-9.12-.25-13.16a37,37,0,0,1,13.64.82C1856,583.7,1854,595.08,1851.91,602.87Z"/><path class="cls-1" d="M1757.57,636c4.64-9.24,6.42-21.55.52-30.62a.08.08,0,0,0-.14.06c2.28,10.43.33,20-.72,30.45A.19.19,0,0,0,1757.57,636Z"/><path class="cls-1" d="M1617.51,577.89c-1.36-.22-2.64,1.45-2.85,2.65,0,.11.06.26.2.21,1.07-.38,2.58-1.41,2.85-2.57A.23.23,0,0,0,1617.51,577.89Z"/><path class="cls-1" d="M1674.45,767.58c-1.25,2.78-3.22,8.13-.64,10.68a.41.41,0,0,0,.69-.16,22.31,22.31,0,0,0,1.27-5,19.34,19.34,0,0,0,.62-5.23A1,1,0,0,0,1674.45,767.58Z"/><path class="cls-1" d="M1715.69,760.64c-.6,3.43,1.15,7.59,2.52,10.67a.29.29,0,0,0,.52,0c1-3.32-.42-8-2.51-10.75A.32.32,0,0,0,1715.69,760.64Z"/><path class="cls-1" d="M1815.2,685.61a18.18,18.18,0,0,0-6.57.4c-.1,0-.15.19,0,.24a19,19,0,0,0,5.66,1.83,18,18,0,0,0,7-.33.3.3,0,0,0,0-.57A27.52,27.52,0,0,0,1815.2,685.61Z"/><path class="cls-1" d="M1651.52,752.62a21.15,21.15,0,0,1-2.1,1.91c-.9.93-1.75,1.88-2.58,2.88-1.06,1.29-2.84,3.15-2.85,4.93a1,1,0,0,0,1.71.78c1.38-1,2.36-3.2,3.24-4.64a20.76,20.76,0,0,0,1.57-2.75c.41-1,.64-2.09,1.14-3A.08.08,0,0,0,1651.52,752.62Z"/><path class="cls-1" d="M1758.77,751.82c-.55-1.37-1.27-3.31-2.83-3.63a0,0,0,0,0,0,0c-.66,1.4.3,3,.8,4.4.28.74.49,1.52.8,2.24a3.81,3.81,0,0,0,1.26,1.48.36.36,0,0,0,.6-.14c.21-.63.52-1,.36-1.67A16.29,16.29,0,0,0,1758.77,751.82Z"/><path class="cls-1" d="M1811.18,709.88a11.59,11.59,0,0,0-2.48-.49c-1.63-.33-3.44-.42-5-.91a.32.32,0,0,0-.32.53,10.93,10.93,0,0,0,4,2.78,11.65,11.65,0,0,0,3,.56c.9.07,1.22-.55,1.88-.92a.41.41,0,0,0,0-.71C1811.86,710.48,1811.67,710.11,1811.18,709.88Z"/><path class="cls-1" d="M1790.08,734.32c-1-.72-2-1.47-3.06-2.1a3.52,3.52,0,0,0-1.22-.51,12,12,0,0,1-1.2-.2c-.16-.1-.41.09-.29.27a4.57,4.57,0,0,1,.1.73c.06.22.23.33.29.53a4.77,4.77,0,0,0,1.3,1.69,18,18,0,0,0,3.55,2.72,1.48,1.48,0,0,0,1.44,0c.34-.2.73-.33.72-.81C1791.66,735.4,1791.09,735,1790.08,734.32Z"/><path class="cls-1" d="M1622.8,552.86a10.78,10.78,0,0,0,2.3-1.49,25.31,25.31,0,0,0,2.66-2,.21.21,0,0,0,0-.33c-2.24-1-4.5,1.86-5.07,3.75C1622.63,552.83,1622.72,552.89,1622.8,552.86Z"/><path class="cls-1" d="M1800.69,636.25c12.45-10.72,21.55-26.93,22.26-43.51,0-.08-.12-.1-.14,0-3.33,16.73-12.48,29.84-22.59,43.14C1800,636.15,1800.44,636.47,1800.69,636.25Z"/><path class="cls-1" d="M1823.47,591.15a2.85,2.85,0,0,0,.78-2.17.63.63,0,0,0-.42-.59c-1.26-.44-.57,2.22-.51,2.72A.09.09,0,0,0,1823.47,591.15Z"/><path class="cls-1" d="M1595.86,715.38c-6.17-1.57-12.5-2.16-18.63-4-7.34-2.14-13.47-5.83-19.59-10.27-.05,0-.13,0-.09.08,7.79,10.7,25.57,16,38.3,14.64C1596.11,715.86,1596.1,715.44,1595.86,715.38Z"/><path class="cls-1" d="M1687.11,661.89c-1-3.12-3.33-5.69-5-8.51a47.74,47.74,0,0,1-5.06-13.48c0-.07-.12-.06-.12,0-.72,7.36,3.43,18.09,9.7,22.3C1686.87,662.36,1687.2,662.14,1687.11,661.89Z"/><path class="cls-1" d="M1632.44,722.93c-3.17.6-6.18,1.76-9.3,2.57-3.53.92-7.21,1.25-10.69,2.3-.11,0-.15.23,0,.25,6.29,1.07,15-1,20.19-4.62A.27.27,0,0,0,1632.44,722.93Z"/><path class="cls-1" d="M1597.64,715.71a.09.09,0,0,0,0,.15,1.77,1.77,0,0,0,2.19.18.14.14,0,0,0,0-.22A2.52,2.52,0,0,0,1597.64,715.71Z"/><path class="cls-1" d="M1846.83,596.4c-5.59,18.38-18.86,31.77-31.24,45.79a.25.25,0,0,0,.35.36c14.34-11.78,27.78-27.3,31-46.12C1846.94,596.36,1846.85,596.33,1846.83,596.4Z"/><path class="cls-1" d="M1648.69,665.25c-3.13-3.4-5.43-7.41-8.25-11,0,0-.08,0-.07,0,2,8,9.79,18.82,18.09,21a.2.2,0,0,0,.19-.33C1655.66,671.42,1651.83,668.67,1648.69,665.25Z"/><path class="cls-1" d="M1634,722.46a.1.1,0,0,0,0,.16,2.12,2.12,0,0,0,2.76-.76.18.18,0,0,0-.1-.27A2.55,2.55,0,0,0,1634,722.46Z"/><path class="cls-1" d="M1814.62,643.5a18,18,0,0,0-3.78,3.76c-.08.11.07.27.19.2a8.94,8.94,0,0,0,3.69-3.89C1814.75,643.5,1814.66,643.47,1814.62,643.5Z"/><path class="cls-1" d="M1774.28,639c9.16-6.6,15.57-19.62,15-30.88,0-.12-.2-.18-.22,0-2.1,11.87-9.72,20.24-15.1,30.54C1773.81,638.79,1774,639.13,1774.28,639Z"/><path class="cls-1" d="M1733.89,644.57c1.94-3.92,1.45-9.7-.4-13.57a.07.07,0,0,0-.13,0c0,2.36,0,4.73-.08,7.1-.07,2.17-.43,4.25.18,6.38C1733.51,644.68,1733.79,644.77,1733.89,644.57Z"/><path class="cls-5" d="M327.46,163.73c-7.66-7.82-19.15-10.88-30.74-12.69,2.2-34.61-50.49-37.43-75.44-40-26.12-2.66-49.35-10.73-74.32-17.83C128,87.86,112.22,91.59,99.2,105.17l-1.61-.43c-18.14-4.64-33.15.19-44.63,14.83-10.66,13.6-10.46,31.32-3.35,46.3,3.82,8.07,10.6,14,18.4,18.53-5.64,45.6,52.93,64.62,87.74,75,36.75,11,95.38,31.22,125.23-4.4a40.67,40.67,0,0,0,8-16.2c18.28-1.91,32.93-9.56,42.62-26.14C340.44,197.54,339.93,176.45,327.46,163.73Zm-169.79-57c14.87,5.09,29.29,9.38,44.81,12.1,18.77,3.28,84.84,1.28,84.11,30.85-4.38-.53-8.62-1-12.5-1.69-33.39-5.71-66.65-14-99.7-21.4-22.06-5-43.17-12.4-64.75-18.56C123.94,97.06,139.79,100.61,157.67,106.73ZM260.19,258.36c-29.85,16.45-76.08-1.71-105.57-10.51-29.13-8.68-75.39-23.58-77.08-58.63,4.5,2,9.08,3.66,13.45,5.17-.1,1.32-.17,2.63-.19,4,0,4.68,7.34,6.49,8.44,1.54,5.71-25.44,16.43-43.13,44.51-44.26,22.14-.88,45.54,6.64,66.6,12.66,20.06,5.73,45.81,12.12,60.82,27.43C288.29,213.17,280,247.44,260.19,258.36Zm30.29-28.6a66.06,66.06,0,0,0-7.78-36.59c-12.11-21.36-47.68-28.76-69-35.18-26.32-7.94-56.12-16.34-83.79-11.71-19.68,3.29-32.57,19.34-37.18,37.58-13.11-4.6-26.39-10.41-33.85-22.7-9-14.84-2.41-32.64,9.72-43.12,14.07-12.14,38.38.31,53.09,5.51,17.87,6.33,36.89,10.1,55.34,14.31,36.37,8.29,73.09,17.57,110,22.75,16.79,2.35,36.26,4.8,40.22,24.52C332.1,209,311.5,226.22,290.48,229.76Z"/><path class="cls-5" d="M254.56,249.39c-11.83,5-27.37,5.25-40,4.25-7.47-.59-14.76-2.52-22.12-3.84-8.13-1.45-16.15-2.62-23.9-5.55a.1.1,0,0,0-.09.18c6.38,4.18,13.61,5.61,20.89,7.53,8.39,2.21,16.38,4.82,25,5.94,13.54,1.76,29.48.46,40.55-7.91C255.32,249.72,254.92,249.24,254.56,249.39Z"/><path class="cls-5" d="M262,244c-2.15.53-3.84,2.83-5.24,4.4a.12.12,0,0,0,.1.2c2.26-.28,5.35-1.71,5.43-4.35A.25.25,0,0,0,262,244Z"/><path class="cls-3" d="M610.71,394.54a13.76,13.76,0,0,0-2.51-3.18.13.13,0,0,0-.22.14,6.34,6.34,0,0,0,2.59,3.14C610.64,394.69,610.76,394.63,610.71,394.54Z"/><path class="cls-3" d="M575.72,361.69c-.31,2.37,1.37,4.78,3,6.33,0,.06.13,0,.12-.07a11.72,11.72,0,0,0-2.78-6.36A.2.2,0,0,0,575.72,361.69Z"/><path class="cls-3" d="M649.74,417c.19.1.32-.15.23-.3A39.77,39.77,0,0,0,638.81,406a.08.08,0,0,0-.11.12C641.38,410.31,645.27,414.71,649.74,417Z"/><path class="cls-3" d="M652.59,414.11c.22.09.39-.13.33-.34-.76-2.38-3.09-5-5.61-5.49,0,0-.08,0-.06.08a14.89,14.89,0,0,0,2.31,3.27A7.65,7.65,0,0,0,652.59,414.11Z"/><path class="cls-3" d="M654.63,410.47a.15.15,0,0,0,.14-.14c.05-1.17-1.58-1.66-2.4-2.11,0,0-.1,0-.06.1C652.85,409,653.48,410.69,654.63,410.47Z"/><path class="cls-3" d="M859.16,231a194.08,194.08,0,0,0-14.07-20.28,137.78,137.78,0,0,0-24.19-26.51c-6.63-5.45-25.5-19.29-34.13-9.57-4.65,5.24-4.76,13.17-4.52,19.82.35,9.37,1,18.83,2.08,28.14-3.37,1.71-8.88,4.41-14.33,7.27-3.37-8.81-7.08-17.47-11.06-25.91-17.85-40.93-43.58-80.83-80-107.33-15.22-11.07-33.93-19.06-53-16.39a38.74,38.74,0,0,0-10.61,3.12c-1.46-3.29-3.13-6.49-4.8-9.67.42-.3.84-.62,1.24-1,8.79-7.63,4.68-20.85-4.65-25.8-5.52-2.93-11.8-.92-16.48,2.55a11.59,11.59,0,0,0-4.25,5.74c-1.73,4.3-1.08,9.33.69,13.66,3,7.42,10.67,9.49,17.49,7.64,1.71,3.3,3.42,6.63,4.9,10-8.19,5.38-14.68,13.44-19.25,22.14-22.53,42.85-8.2,99.59,8.1,141.84a323,323,0,0,0,22.27,46.41c1.11,2,2.27,4,3.43,6.06-6.23,2.92-12.66,6.21-16.46,8.09-6.82-6.44-14-12.64-21.28-18.53-5.17-4.18-11.6-8.84-18.58-8.26-12.95,1.08-13.18,24.48-12.79,33.06a138.63,138.63,0,0,0,6.72,35.25A193.71,193.71,0,0,0,569.42,376c7.73,19.12,18.87,39.58,33.52,54.31,5,5.08,11.34,6.93,18,6.79,3.44,3.92,7.43,7.34,12.85,7.8,7.47.62,16.55-4.73,22.58-8.48,6.61-4.11,14.4-9,18.78-15.59,3.1-4.69,1.66-9.61-.64-14.13a15.49,15.49,0,0,0,1.21-3.67c1.3-7-1.29-13.35-4.91-19.18.7-6.72,1.57-13.42,2.51-20.12a40,40,0,0,0,18.34,7.89c.52,12.24,3.67,22.35,17.16,24.81,14,2.55,29.89-5.87,41.91-11.84,13.76-6.85,28.75-13.11,38.72-25.27,10.1-12.33,2.69-20.67-6.41-29.91,3.43-6.73,4.19-14.77,4-22.6,5.92,3.26,11.8,6.57,17.61,10,2.5,6.39,6.06,12.29,12.41,15.42a10.48,10.48,0,0,0,1.29.56,15.31,15.31,0,0,0,8.22,9.35c7.64,3.2,18.59-1.27,25.64-4.2,7.41-3.07,16.29-6.87,21.82-12.86,3.75-4.05,4.26-10.27,2.49-15.47,4.52-5.43,7.1-11.85,6-19.31C879.54,269.79,869.84,248.61,859.16,231Zm-73.87-.77a512.92,512.92,0,0,0,11.83,60.94c-8.3-2.08-16.58-4.44-24.19-8.41a29.4,29.4,0,0,1-8.83-6.86c-2-7.3-4.61-18.38-5.39-22.7-1-5.39-.71-8.18,3.19-10.42C767.45,239.56,778.11,234,785.29,230.19Zm-31.1-19.65a5.19,5.19,0,0,1-3.32,2.35c-2.86.6-5.78-1.36-7.53-3.41-2.46-2.89-2.19-6.69-.4-9.81a7.59,7.59,0,0,1,4.69-3.85Q751.08,203.09,754.19,210.54ZM594.09,67.47c-3.35-4.34-2.14-9.55,1.21-13a9.18,9.18,0,0,1,9.16-1.07c5.85,2.49,6.81,10.48,2.27,14.45C603.09,71.07,597.2,71.49,594.09,67.47Zm6.51,37.34c17.4-26.15,43.31-21.14,66.53-7a29.86,29.86,0,0,1-2.34,4.06,44.75,44.75,0,0,1-8.36,8.31,136,136,0,0,1-19.17,12.38,75.87,75.87,0,0,1-26.7,9.05c-6.12.82-14.36.91-21-1A82.1,82.1,0,0,1,600.6,104.81Zm9.61,156.09a13.64,13.64,0,0,1,7.44.31c2.72.93,4.35,3.49,5,6.13,1.12,4.51-1.31,7.76-4.38,10.38C615.46,272.17,612.75,266.56,610.21,260.9Zm8.94,18.56c4.45-1.95,6.13-9,5.08-13.33-1.5-6.18-9.18-9.13-14.55-6.41-11.78-26.51-20.07-54.92-22.8-83.85-1.33-14.15-1-29.3,2.27-43.55,4.92,2.17,11,2.3,16.11,2.23,10.47-.13,20.58-3.4,29.92-7.94a133.22,133.22,0,0,0,22.94-14.47c3.67-2.85,9.21-7.63,11.48-12.74,16.18,10.42,30.84,25,40.06,36a282.66,282.66,0,0,1,37.21,58.78,11.12,11.12,0,0,0-4.55,3.23,10.41,10.41,0,0,0-1.32,12,10.8,10.8,0,0,0,9.44,5.41,7,7,0,0,0,4.66-2.22q4.27,10.35,8,20.92c-2,1.15-3.89,2.27-5.43,3.29-4.52,3-5.66,6.51-5.37,12.22a66,66,0,0,0,1.08,7.43,35.51,35.51,0,0,1-4.07,7.17c-3.27,4.28-7.94,7.61-12.59,10.59a31.15,31.15,0,0,0-14.89-16.37c-11.64-5.71-22.48-3.78-33.12,3.24a25.07,25.07,0,0,0-7.57,7.63c-7.15,9.82-4.82,23.93.09,34.21A87,87,0,0,1,665,306.83c-5,.66-9.06-.35-13.23-1.88A48.82,48.82,0,0,0,648,301.3c-4.39-3.65-7.87-4.83-13-3-1.34.47-2.83,1.06-4.42,1.73Q624.51,289.94,619.15,279.46Zm107.66,14.36c-4.77,6.45-12.8,11.35-21,10.87-12.42-.71-19.62-12.57-21.47-24.11a28,28,0,0,1,6-11.62,28.79,28.79,0,0,1,2.63-2.32c8.32-6.49,18.57-6.65,27.4-1.39a24,24,0,0,1,11.6,18.2C731.43,287.26,729,290.84,726.81,293.82Zm4.75-2.22a23.6,23.6,0,0,1-7.42,12.64c-10.2,9-26.85,9.62-35.36-1.68a25.54,25.54,0,0,1-5-12.68c4.27,9.24,13.79,16.91,22.94,17.55,8.77.61,17.13-5.49,22.3-12A30.44,30.44,0,0,0,731.56,291.6Zm-94.43,13.6c4.14-1.79,6.52-.32,10.26,3.69,3,3.23,10.4,12.07,15.05,18.05a32.77,32.77,0,0,1,.21,10.07c-.94,8.76-4.42,17.26-7.88,25.38a512.08,512.08,0,0,0-41.7-46C620.42,312.94,631.26,307.73,637.13,305.2ZM618.48,430a206.55,206.55,0,0,1-20.86-27.59c-6.71-10.5-11.93-21.74-17.9-32.64-.07-.12-.29-.08-.25.07,5.93,21.45,19.28,42,34.12,58.83-4.42-1.79-8.32-5.1-12-9.85-3.48-4.5-6.7-9.11-9.7-13.8a292.3,292.3,0,0,1-21.68-47.24,217.1,217.1,0,0,1-8.87-50.56c.13-1.43.29-2.85.51-4.27,1.13-7.06,4.42-14.5,12.49-10.69,6.2,2.94,11.48,8.29,16.62,12.73a450.72,450.72,0,0,1,50.39,51.7c7,8.33,13.94,16.78,20.46,25.51,3.58,4.79,6.95,10.13,7.93,16.12s-5.36,11.3-9.38,14.61A87.84,87.84,0,0,1,649,420.77c-6.11-6-12.38-11.86-18.72-17.68,0,0-.1,0-.08.06,2.35,3.94,5.75,7.08,8.74,10.53,2.5,2.89,5.14,5.66,7.84,8.37-.79.43-1.6.83-2.41,1.24-7.74-7.9-15-16.35-23.68-23.24-.07-.06-.15,0-.11.11,6,8.89,13.68,16.72,21.16,24.41-1.24.58-2.49,1.12-3.76,1.63-8.79-10-17.16-20.31-26.15-30.11,0,0-.12,0-.09.06,6.78,11.26,15.06,21.21,23.7,31-1.09.4-2.2.78-3.32,1.13-10.73-12.49-20.4-25.74-30.77-38.52a.08.08,0,0,0-.14.09c6.62,14.45,17.22,27.39,27.73,39.36a30.44,30.44,0,0,1-3.11.61c-14-14.27-24.25-30.85-35-47.61,0-.07-.16,0-.13.08,6.75,17.75,18.3,34,31.32,47.87A21.94,21.94,0,0,1,618.48,430Zm54.6-11.83c-2.23,5.82-10.83,10.67-15.74,14-6.61,4.44-14.23,8.36-22.17,9.6-4.38.68-7.63-2.21-10.95-4.82,13-1.44,26.88-9.48,35.75-15.62,4.18-2.89,9.29-6.64,12.6-11.24C673.61,412.58,674.27,415,673.08,418.14ZM669.3,347c-1.25,9.69-2.78,19.36-3.9,29.07l-.09-.12q-4.27-5.72-8.74-11.32c4.1-9.65,8.07-19.62,8.78-30.17a23.77,23.77,0,0,0,0-3.68c.29.42.55.81.73,1.1A22,22,0,0,1,669.3,347Zm-13.58-37.74a40,40,0,0,0,6.29.55c7,.11,14-1.75,20.68-4,10.12,16.83,34,14.15,47.23,2.52,9-7.9,11.1-20.17,7.85-31,6.7-4.42,12.93-9.41,16.54-16,1.8,8.67,4.3,18.77,5.38,21.87a29.06,29.06,0,0,0,7.68,12.26c.12.12.26.22.39.33a41.26,41.26,0,0,1-10.65,15.61,104.73,104.73,0,0,1-23.67,16.43A130.22,130.22,0,0,1,704.29,339a76.56,76.56,0,0,1-17,2.26c-3.83.06-7.63-1-11.39-1.37a29.71,29.71,0,0,0-5-12.18C669,324.84,661.8,316.1,655.72,309.28ZM700.38,384c-1.8-3.53-2.37-7.76-3.27-11.77a61.76,61.76,0,0,0,6.8,0c.08,3.34,1.39,6.7,2.61,9.79a65,65,0,0,0,3.28,8C705.89,389.42,702.31,387.76,700.38,384Zm17.79,5.58a31.06,31.06,0,0,1-4.8.53c-.88-2.71-2.92-5.58-3.9-7.75A73,73,0,0,1,706.21,372a74.11,74.11,0,0,0,7.62-1.13c0,2.73,1,5.49,1.85,8.11a51,51,0,0,0,4.35,10.2C719.41,389.29,718.8,389.45,718.17,389.56Zm4.92-1.12c-1-2.56-2.58-5-3.64-7.43-1.5-3.39-2.19-7.14-3.47-10.6,2.88-.64,5.74-1.41,8.56-2.29-.36,3.72,1,7.71,2.18,11.12a32.23,32.23,0,0,0,3.19,7.1Q726.55,387.54,723.09,388.44Zm9.68-3.18a47.32,47.32,0,0,1-3-5.94,65,65,0,0,1-3.22-11.84c2.84-.94,5.63-2,8.35-3.07a21,21,0,0,0,1.28,7.78c.88,2.75,2,6.87,3.82,10C737.6,383.28,735.2,384.31,732.77,385.26ZM748,378.32c-1.73.87-3.46,1.71-5.2,2.55-.81-2-1.95-3.9-2.67-5.64a52.78,52.78,0,0,1-3.3-11.61c3.43-1.42,6.74-2.92,9.87-4.42a59.87,59.87,0,0,0,2.78,7.16,100.3,100.3,0,0,1,3.29,9.63Q750.35,377.15,748,378.32Zm16.67-8.19c-3.08,1.65-6.24,3.16-9.37,4.66A58.57,58.57,0,0,0,753,368a45.31,45.31,0,0,0-4.63-9.59c2.69-1.33,5.38-2.75,8-4.29,1.4,2.12,3,4.13,4.36,6.25a34.87,34.87,0,0,1,3.24,6.39A18.41,18.41,0,0,1,764.66,370.13Zm2.81-1.54c-.48-2.93-2.52-6.37-3.43-8-1.41-2.45-3.39-5.61-5.93-7.56,2.4-1.44,4.75-3,7-4.63l.62.53a41,41,0,0,1,4.79,4.8c2.45,3,3.57,6.18,5.05,9.53A71.6,71.6,0,0,1,767.47,368.59Zm11.72-8.29c-.43.4-.9.75-1.35,1.13-.26-3.15-2.91-6.61-4.58-8.74a25.64,25.64,0,0,0-6-5.87,74.36,74.36,0,0,0,6.38-5.49,66.82,66.82,0,0,1,5.66,6.22c1.86,2.45,2.91,5.4,4.48,8A55.33,55.33,0,0,1,779.19,360.3Zm8.34-15.49c1.3,2.43.07,5.51-1.89,8.34a23.63,23.63,0,0,0-3.58-6.5c-1.8-2.54-4.07-5.27-6.87-6.85a58,58,0,0,0,4.08-4.65C782.35,338.09,785.58,341.15,787.53,344.81Zm-7.27-35a51.31,51.31,0,0,1-2.51,14.51c-4.38,12.86-20.39,21.61-31.54,27.48A120.21,120.21,0,0,1,703,365.33c-.75.07-1.49.13-2.21.17-9.21-.86-17.86-3.15-25.58-9-.17-.12-.32-.27-.49-.4.88-4.61,1.71-9.37,1.48-13.73a38.44,38.44,0,0,0,9.32,1.27,68.71,68.71,0,0,0,17.62-1.75,126.43,126.43,0,0,0,32.54-12.19c9.15-4.82,18.1-10.89,25.3-18.35,3.24-3.35,7.72-8.33,9.39-13.54a71,71,0,0,0,9.51,5.32C780,305.39,780.19,307.62,780.26,309.84Zm-4.15-16.29A22,22,0,0,1,766,281.89c-.19-.47-.42-1.15-.67-2,8.39,7.47,21.39,11.22,32.57,14,1.22,4.62,2.48,9.23,3.83,13.79a.57.57,0,0,0,0,.14C793.27,302.94,784.62,298.36,776.11,293.55Zm93.78,31.22c-4.65,4.25-11.76,7-17.44,9.61-7,3.19-14.67,5.64-22.47,5.32-4.21-.18-5.94-3-7.67-5.93,6.27.78,13.36-1.35,18.84-3.18C851,327.3,865,321.35,874,312.44,874.27,316.94,873.77,321.21,869.89,324.77Zm5-26.9c-4.61-22-13-44.93-26.64-62.56-.09-.12-.29,0-.22.13,4.82,10.59,10.2,20.86,14.53,31.68A195.93,195.93,0,0,1,873,302.53a23.18,23.18,0,0,1-2,3.08c-3.29-18.74-9.38-37.74-19.54-53.8-.05-.08-.16,0-.13.08,7,18.63,14.09,36.81,17.14,56.55-.73.71-1.51,1.42-2.35,2.11-3.31-15.58-7.31-31.84-14.89-45.79-.05-.08-.19-.05-.17.05,4,16,8.84,31.64,12.42,47.72-1,.68-1.92,1.35-2.91,2-2.68-12.82-5.67-25.4-10.64-37.58,0-.05-.12,0-.1,0,2.44,13.07,5.72,26,8.43,39-1.16.71-2.36,1.39-3.56,2-1.67-10.6-3.33-21.46-6.87-31.58,0-.09-.15,0-.15,0,.34,11.07,2.73,22,4.42,32.87-.81.4-1.61.8-2.43,1.17-.53-3.68-1.16-7.36-1.95-11-1-4.55-1.49-9.24-3.26-13.58,0-.06-.1,0-.1,0,.85,8.56,1.76,17.07,2.94,25.58a86.22,86.22,0,0,1-13.09,4.35c-5.05,1.24-13,3.2-17.31-1.24s-6.46-10.27-8.15-16c-3.08-10.45-5.7-21.07-8.17-31.67-5.48-23.56-9.53-47.18-11.19-71.32-.47-6.78-1.59-14.21-.23-20.94,1.78-8.74,9.71-6.91,16-3.58,1.27.67,2.5,1.39,3.73,2.15a217.81,217.81,0,0,1,35.16,37.4,292.22,292.22,0,0,1,24.82,45.66c2,5.22,3.72,10.55,5.23,16C875.73,288.15,876.05,293.26,874.84,297.87Z"/><path class="cls-3" d="M848.22,271.2a13.92,13.92,0,0,0,1,3.92.1.1,0,0,0,.18,0,6.51,6.51,0,0,0-1-4A.13.13,0,0,0,848.22,271.2Z"/><path class="cls-3" d="M843.64,227.63a11.78,11.78,0,0,0,3.44,6.07c0,.05.12,0,.12-.08-.27-2.27-1.19-5-3.3-6.2C843.77,227.34,843.61,227.49,843.64,227.63Z"/><path class="cls-3" d="M841.6,304.48a38.35,38.35,0,0,0,1.89,15.38c.07.19.34.12.37-.05.9-4.92-.37-10.72-2.1-15.35A.08.08,0,0,0,841.6,304.48Z"/><path class="cls-3" d="M838.43,312.66a.06.06,0,0,0-.11,0,8.38,8.38,0,0,0,1.07,7.8.25.25,0,0,0,.43-.06,6.26,6.26,0,0,0-.07-3.51A17,17,0,0,0,838.43,312.66Z"/><path class="cls-3" d="M835.24,316.69c-.12.89-.7,2.52.24,3.16a.18.18,0,0,0,.21,0c.87-.81-.08-2.28-.33-3.16C835.34,316.62,835.26,316.61,835.24,316.69Z"/><path class="cls-3" d="M696.76,230.55c27.51-23,20.06-68.2-10.34-85.34-12.62-7.13-25.23-8.5-37.62-5.27h0l-1.74.48c-.78.23-1.56.47-2.33.73l-.42.15c-.93.33-1.84.68-2.76,1.05l-1,.42c-.47.2-.93.41-1.4.63a73.07,73.07,0,0,0-8.29,4.41,48,48,0,0,0-12.73,11.29c-.19.22-.4.44-.57.66-14.67,17.89-10.68,44.14-.62,63C633,253,673.54,249.93,696.76,230.55Zm-79.51-54.82c2.66-7.86,7.62-14.87,15.68-20.89C648.15,143.48,666.55,142,683,151.3a46.75,46.75,0,0,1,20.94,24.94,29.85,29.85,0,0,1,1,9.15c-.46,8.07-5.65,15.58-10.49,21.74-8.72,11.1-23.09,19.74-37.57,18.58-13.19-1.06-24.19-11-31.16-21.53A51.12,51.12,0,0,1,617.25,175.73Zm-2,9c0-.37.07-.74.12-1.1a0,0,0,0,0,0,0A53.16,53.16,0,0,0,623,204.71c7.67,12.33,19.81,22.45,34.71,23.75,15.55,1.36,30.57-9.14,39.72-20.79,4-5.14,7.59-11,9.26-17.38a43.6,43.6,0,0,1-14.25,34.83c-18.89,17-51.18,19.65-67.35-2.13A54.7,54.7,0,0,1,615.22,184.7Z"/><path class="cls-3" d="M592.23,141.07c-1.79,12-.63,24.9.63,36.94a160.67,160.67,0,0,0,7.79,36.29c.06.19.37.08.33-.11a291.84,291.84,0,0,1-6.28-36.54c-1.32-12.17-1-24.45-2.24-36.6C592.45,140.92,592.25,141,592.23,141.07Z"/><path class="cls-3" d="M601.9,217.28a19,19,0,0,0,2.34,8.42.16.16,0,0,0,.3-.11,39.33,39.33,0,0,0-2.46-8.34C602,217.17,601.9,217.19,601.9,217.28Z"/><path class="cls-6" d="M565.85,798C555,750.63,534,704.11,500.19,668.66a143.48,143.48,0,0,0-31.76-25.48A5.79,5.79,0,0,0,466.9,642a103.25,103.25,0,0,0-19.74-8.11,88.3,88.3,0,0,0-39.5-2.78,78,78,0,0,0-33,13.61c-9.92,6.65-17.86,15-24.92,24.74a173.85,173.85,0,0,0-18.19,30.83C315,734.27,307.05,772,305,809.85a327.32,327.32,0,0,0-.15,40c.05,1.24.08,2.47.14,3.7,1.44,27.2,6.31,56.34,22.28,79.06,13.44,19.12,36.86,28.35,58.89,33,47.12,9.93,99.38,1.84,139.81-24.55,20.52-13.4,37.22-32.28,45.33-55.57C580.74,858.21,572.05,825.1,565.85,798Zm-8.06,91.8c-11.09,25.33-35.41,42.71-59.72,54-43.26,20.18-108.81,22.8-149.2-5.09-14.39-9.93-22.28-26.08-26.81-43.33a5.93,5.93,0,0,0-.13-1.6c-9.46-41.94-7.21-87.19.88-129.14,6.32-32.72,17.77-69.59,40.78-95.36l.4-.44c1.25-1.38,2.56-2.7,3.87-4,13.26-13.06,29.7-22,50.09-23.81.6-.05,1.2,0,1.8-.07,22.67-.29,45.15,10.45,63.21,26.36,36.82,32.46,58.23,79.55,70.44,126.21C561.25,823.6,570.79,860.13,557.79,889.82Z"/><path class="cls-6" d="M486.33,846.22c-22.16-3-46.9,4.07-66.08,15.06a69.79,69.79,0,0,0-20,17.25c-.31.38-.61.77-.9,1.15l-.5.65c-.73,1-1.43,2-2.08,3a.91.91,0,0,0-.11.16,34,34,0,0,0-2.18,4l-.08.18c-.2.42-.39.85-.56,1.27s-.28.59-.4.89c-4.46,11.06-4.22,25.74,6.76,33,11.35,7.5,23.78,2.94,34.8-2.81,14.55-7.59,27.55-16.07,44.56-16.69,12.51-.45,29,1.15,37.37-10.42,6.23-8.57,6.27-20,1.94-29.45C513.63,852.16,497.49,847.74,486.33,846.22Zm4.54,6.79c-2.29,4.7-5.16,8.32-11.43,7.19a12.63,12.63,0,0,1-6.87-4.18,11.44,11.44,0,0,1-2.14-4.42A69.64,69.64,0,0,1,490.87,853ZM444.8,867.4c-5.24.7-8.58-2-11-6.09,2.59-1.24,5.23-2.35,7.89-3.39,4.19-1.43,8.37-2.63,12.43-3.62C454.37,860.37,451.64,866.48,444.8,867.4Zm-23.67,3.48a13.31,13.31,0,0,1,.54,4.48,8.34,8.34,0,0,1-3.44,6.46,7.35,7.35,0,0,1-6.74.66c-1.5-.51-3-2.12-4.47-3.08a72.37,72.37,0,0,1,13.28-10.56A16.44,16.44,0,0,1,421.13,870.88Zm16,41.45c.54-5.27-.23-13,5.16-13.36,3.8-.29,6.18,3.43,9,5.77C446.45,907.08,441.79,909.74,437.09,912.33Zm32.11-13.65c.25-4.77.87-12,6-12.21,5.78-.19,7.64,6.46,9.8,11A100.58,100.58,0,0,0,469.2,898.68Zm41.3-7.3c-5,5.09-13.47,5.89-20.57,6-.19-3.52-2.59-7.47-4.59-10-2.64-3.39-5.83-5.55-10.16-5.95-9-.86-11,11.29-10.56,18.21-.71.19-1.42.36-2.14.58a64.7,64.7,0,0,0-6.42,2.35c-1.41-2.35-4.41-4.25-6.33-5.68-2.81-2.09-6.14-3.37-9.63-2.58-3.91.88-6,5.34-6.63,8.84A25.69,25.69,0,0,0,434,914a103.42,103.42,0,0,1-10.31,4.89c-7.16,2.87-14.85,3.61-21.25-1.42-7-5.47-7-15-4.73-22.76a35.06,35.06,0,0,1,6.87-12.62,12.82,12.82,0,0,0,5.25,4.28,11.67,11.67,0,0,0,10.1-.51,11.88,11.88,0,0,0,5.94-8.59,18,18,0,0,0-1.74-10.76c2-1.18,4-2.31,6-3.36l.75-.37c3.05,5.76,8.3,10.18,15.42,8.63,8.74-1.9,12.76-9.9,12.06-18.07,2.93-.62,5.89-1.1,8.86-1.43-.63,5.77,7.08,11.68,11.87,12.6,7,1.33,14.58-3.44,15.93-10.39a54.33,54.33,0,0,1,11.61,5C517.62,865.55,519.31,882.35,510.5,891.38Z"/><path class="cls-6" d="M419.7,843.71c9.26-13.11,12.45-30.18,13.57-45.87A150.29,150.29,0,0,0,432,763c-.31-18.74-6.35-38.18-14.37-54.22-7.43-14.86-24.53-34.48-43-24.12a.23.23,0,0,0,.12.43c9.52-1,17.25.21,24.89,6.35a48.32,48.32,0,0,1,10.85,13.3,31.33,31.33,0,0,0-16-6.94c-20.52-2.74-33.85,11.27-42,29.25a87.07,87.07,0,0,0-10.77,34.16c-2.53,24.15-2.7,52.15,8.24,74.33,9.07,18.4,29.76,25.17,48.56,19.66-18.9,9-43.47,4.25-57.92-13.91-.18-.22-.59,0-.48.28,6.44,15.39,21.9,22.83,37.92,23.46C394.78,865.71,410.12,857.28,419.7,843.71Zm2.95-47.42c-.89,14.23-3.49,30-13.06,40.69-8.57,4.66-19.57,4.34-29.24-1.48-16-9.63-18.34-30.19-18.29-47.08.09-27.52,5.22-61.65,26.69-81C424.45,701,423.91,776,422.65,796.29Zm-68.39,25c-5.89-17.3-4.61-39.09-3.26-57.13a79,79,0,0,1,1.59-10.88c.41-1.77.85-3.53,1.34-5.28a82.4,82.4,0,0,1,18.25-32.6,36,36,0,0,1,11.47-6.64c-9.57,8.81-15.16,22.61-18.57,34.41-5,17.37-6.67,36-5.94,54,.77,19.19,8.2,38.15,27.51,45.12a30.39,30.39,0,0,0,15.11,1.23C381.49,856.1,361.05,841.24,354.26,821.33Z"/><path class="cls-6" d="M533.78,804.57c-5,10.31-11.25,18.33-21.74,23.51a34.61,34.61,0,0,1-13.48,3.45c8.74-2.5,16.72-8.71,22.05-19.1,9.94-19.38,4.45-42.23,1.61-62.61a65.13,65.13,0,0,0-13.71-31.92c-8.87-13.06-21.77-22.17-39.19-20a26.33,26.33,0,0,0-17.09,9.6,56.56,56.56,0,0,1,19.66-26.18c.1-.07.08-.28-.08-.27-18.68,2.15-25.71,24.88-28.26,40.48-.29,1.78-.48,3.58-.68,5.38a66.1,66.1,0,0,0-1.73,10,141.12,141.12,0,0,0,5.65,55.3,68.77,68.77,0,0,0,7,17.34A45.31,45.31,0,0,0,464,822.81a48.88,48.88,0,0,0,16.08,10.62c21.82,8.63,50.42-4.1,53.95-28.76C534,804.54,533.85,804.43,533.78,804.57Zm-18-7.67c-2.19,12.33-9.42,23.72-22,26.82a20,20,0,0,1-6.05.52,39,39,0,0,0,10.07-7c11.1-11.1,11.4-28.23,10.63-42.85-.8-15.12-4-30.23-10.69-43.86C494,723,488.17,714.31,481,708.17c18.72,4.73,28,26.59,32.56,44.63C516.53,767,518.17,783.34,515.77,796.9Zm-40-89.53a58.24,58.24,0,0,1,5.31,4.66,70.34,70.34,0,0,1,11.26,15.8c6.37,11.58,9.69,25,11.32,38,1.52,12.24,2.06,25.61-1.93,37.41-2.47,7.28-8,13.23-14.43,17.19a17.84,17.84,0,0,1-6.06,2.38c-8.57-3.27-15.61-11.53-19.74-19.11C450.6,783.69,436.44,704.24,475.8,707.37Z"/><path class="cls-6" d="M324.05,872.1a.17.17,0,0,0-.33,0c-1.44,4-1.48,10.79,1.33,14.19a1.48,1.48,0,0,0,2.47-.65c.31-2.17-.51-4.27-1.12-6.35A72.71,72.71,0,0,0,324.05,872.1Z"/><path class="cls-6" d="M335.23,889.42a.5.5,0,0,0,.48-.13c1.62-1.7.38-4.62-.27-6.52-.18-.53-1.57-4.27-2.68-3.39s-.47,3.59-.28,4.84C332.75,886.06,333.1,888.84,335.23,889.42Z"/><path class="cls-6" d="M334.94,901.77c.89-3.12-2.32-7.43-4.09-9.79a.48.48,0,0,0-.88.24,12.72,12.72,0,0,0,.67,5c.45,1.72.85,3.78,2,5.15A1.38,1.38,0,0,0,334.94,901.77Z"/><path class="cls-6" d="M336.29,913.43a8.75,8.75,0,0,0-3.17-3.14.44.44,0,0,0-.64.49,20.93,20.93,0,0,0,1.47,4.54c.63,1.49,1.8,3.92,3.57,4.2a1.43,1.43,0,0,0,1.73-1.73,4.72,4.72,0,0,0-1.34-2.14C337.33,915,336.83,914.16,336.29,913.43Z"/><path class="cls-6" d="M340.48,907.59a.29.29,0,0,0-.48.28c.32,1.84.81,3.65,1.3,5.45.36,1.32,1,3.32,2.53,3.57a.52.52,0,0,0,.57-.24c.91-1.27,0-3.14-.62-4.37A15.32,15.32,0,0,0,340.48,907.59Z"/><path class="cls-6" d="M350.14,926.54a14.36,14.36,0,0,0-1.72-1.49,6.13,6.13,0,0,0-1.91-.79.35.35,0,0,0-.42.43,17,17,0,0,0,.42,1.78c.37.82.78,1.64,1.22,2.43.75,1.29,1.82,3.19,3.39,3.53a1.58,1.58,0,0,0,1.92-1.92C352.83,929,351.12,927.57,350.14,926.54Z"/><path class="cls-6" d="M346.8,905.85c1.11-3.32-1.86-7.3-3.85-9.74a.31.31,0,0,0-.51.13,12.19,12.19,0,0,0,3.71,9.78A.39.39,0,0,0,346.8,905.85Z"/><path class="cls-6" d="M350,914.2c-.5-.34-1.07.22-.95.74.58,2.69,2.44,6.93,5.42,7.64a.46.46,0,0,0,.56-.32C356,919.06,352.34,915.79,350,914.2Z"/><path class="cls-6" d="M362.51,936.92c-1.15-.77-2.77-1.87-4.2-1.89-.13,0-.27.15-.21.28a13.52,13.52,0,0,0,3.13,4c1.28,1.26,2.76,2.22,4.57,1.68a.46.46,0,0,0,.27-.66C365.33,938.73,364,937.9,362.51,936.92Z"/><path class="cls-6" d="M559,858.4c1.81-3.15.4-7.42-1-10.5a.14.14,0,0,0-.24,0,22.33,22.33,0,0,0,.6,10.38A.37.37,0,0,0,559,858.4Z"/><path class="cls-6" d="M552.35,857.28c-.65,1-.61,2.49-.75,3.64-.16,1.41-.48,3,.16,4.31a.91.91,0,0,0,1.56,0,6.86,6.86,0,0,0,.22-3.79c-.16-1.28-.08-3.05-.81-4.16A.23.23,0,0,0,552.35,857.28Z"/><path class="cls-6" d="M556.77,873c3.39-.71,2.88-6.41,1.77-8.8a.31.31,0,0,0-.48-.06,10.39,10.39,0,0,0-1.83,4.32c-.37,1.6-.82,2.84,0,4.33A.47.47,0,0,0,556.77,873Z"/><path class="cls-6" d="M551.3,880.42a15.93,15.93,0,0,0,.6-8.33.19.19,0,0,0-.34,0,25.68,25.68,0,0,0-2.39,8.09C549,881.44,550.89,881.47,551.3,880.42Z"/><path class="cls-6" d="M551.47,889c1.5.88,3-1,3.62-2.13.77-1.38,1.66-3.25,1.52-4.86a.8.8,0,0,0-1.19-.68c-1.51.67-2.44,2.48-3.31,3.79C551.62,885.84,550.2,888.23,551.47,889Z"/><path class="cls-6" d="M547.86,890.08a25.9,25.9,0,0,0-2.79,4.66c-.49,1.27-1.24,2.75-.21,3.94a.43.43,0,0,0,.42.11c1.46-.42,1.77-2.12,2.23-3.38a15.18,15.18,0,0,0,.72-5.23A.2.2,0,0,0,547.86,890.08Z"/><path class="cls-6" d="M468.52,913.28c-6.81,1.92-13.18,5.16-17.19,11.1-.09.13,0,.37.2.34,5.91-.71,11.1-3,16.74-4.77A167.42,167.42,0,0,1,487,915.47a.52.52,0,0,0,.12-1C480.58,911.14,475.6,911.28,468.52,913.28Z"/><path class="cls-6" d="M1735.7,914.39c-.27-29.37-14.52-59.35-37.89-77.2-22.27-17-53.72-18.66-80-12.59a87.22,87.22,0,0,0-35.32,17.3c-13.43,9.6-24.46,22.31-31.12,37.44-24.65,56,17.73,114.06,73,127.95C1685.69,1022.73,1736.26,975.1,1735.7,914.39Zm-81.55,85.2c-52.9,4.56-108.34-44.13-99.13-99,4.8-28.56,27.37-50.09,52.8-61.44a85.34,85.34,0,0,1,16.33-5.4,97.73,97.73,0,0,1,18.15-1.94c1.27,0,2.54,0,3.8,0h.1a100.44,100.44,0,0,1,25.44,4.55A75.7,75.7,0,0,1,1710.88,867C1744,917.58,1717.77,994.1,1654.15,999.59Z"/><path class="cls-6" d="M1666.78,899.21c-3.44-6.75-10.13-11.06-17.47-12.72a21.86,21.86,0,0,0-8.1-.73,24.77,24.77,0,0,0-16.77,7,32.78,32.78,0,0,0-10.66,14c-7.28,19.69,14.77,37.16,32.6,36.09C1668.28,941.5,1675.52,916.38,1666.78,899.21Zm-19.23,33.11c-11.75,3.12-24.3-7.63-24.62-19.18-.2-7,5.63-12.27,11.24-15.24a16.2,16.2,0,0,1,1.74-.74c6.66-2,13.74-1.62,19.2,3.69C1664.94,910.42,1660.67,928.84,1647.55,932.32Z"/><path class="cls-6" d="M1576.74,953.69c.09,1.37,2.34,2.39,3.41,2.82a5.5,5.5,0,0,0,2.91.57c.52-.13,1.58-.81,1.6-1.44C1584.73,952.48,1576.64,952.25,1576.74,953.69Z"/><path class="cls-6" d="M1595.46,966.22c-.38-.38-1.52-.93-2.06-.61-2.73,1.59,1.29,8.6,2.47,7.77s.81-3.25.62-4.38A5.44,5.44,0,0,0,1595.46,966.22Z"/><path class="cls-6" d="M1602.69,949.51c-.88-1-3.3-.55-4.41-.28a5.58,5.58,0,0,0-2.69,1.25c-.36.41-.81,1.59-.45,2.1C1596.94,955.19,1603.62,950.62,1602.69,949.51Z"/><path class="cls-6" d="M1612,959.44a5.6,5.6,0,0,0-2.19-2c-.52-.16-1.78-.13-2.12.4-1.7,2.67,5.09,7.06,5.76,5.78S1612.65,960.36,1612,959.44Z"/><path class="cls-6" d="M1689.87,963.53a5.44,5.44,0,0,0-2.19-2c-.51-.17-1.78-.14-2.11.39-1.71,2.67,5.08,7.06,5.75,5.78S1690.56,964.45,1689.87,963.53Z"/><path class="cls-6" d="M1627.77,950c-.84-1.08-3.28-.65-4.4-.4a5.39,5.39,0,0,0-2.72,1.17c-.37.4-.86,1.56-.52,2.08C1621.86,955.46,1628.67,951.09,1627.77,950Z"/><path class="cls-6" d="M1591,938.2c.28.47,1.24,1.28,1.84,1.1,3.05-.86.89-8.65-.47-8.13s-1.58,2.94-1.68,4.08A5.45,5.45,0,0,0,1591,938.2Z"/><path class="cls-6" d="M1611.34,933.59c-1.29-.46-3.12,1.2-3.94,2a5.38,5.38,0,0,0-1.68,2.44c-.1.53.11,1.78.68,2C1609.27,941.4,1612.7,934.08,1611.34,933.59Z"/><path class="cls-6" d="M1710.67,920.87c2.87,1.32,6.3-6,4.94-6.49s-3.12,1.2-3.94,2a5.38,5.38,0,0,0-1.68,2.44C1709.89,919.36,1710.1,920.61,1710.67,920.87Z"/><path class="cls-6" d="M1625.08,976.38c-1.29-.46-3.12,1.2-3.94,2a5.54,5.54,0,0,0-1.68,2.44c-.1.53.11,1.77.68,2C1623,984.19,1626.44,976.87,1625.08,976.38Z"/><path class="cls-6" d="M1661.49,879.58a5.5,5.5,0,0,0,2.91.57c.52-.13,1.58-.81,1.59-1.44.07-3.17-8-3.39-7.91-2S1660.42,879.15,1661.49,879.58Z"/><path class="cls-6" d="M1677.21,896.45c1.12-.79.81-3.25.62-4.38a5.44,5.44,0,0,0-1-2.78c-.38-.39-1.52-.93-2.06-.62C1672,890.27,1676,897.28,1677.21,896.45Z"/><path class="cls-6" d="M1676.48,875.65c1.8,2.61,8.48-2,7.55-3.07s-3.3-.55-4.41-.28a5.58,5.58,0,0,0-2.69,1.25C1676.57,874,1676.12,875.14,1676.48,875.65Z"/><path class="cls-6" d="M1652.29,865.37c1.8,2.61,8.48-2,7.55-3.07s-3.3-.55-4.41-.28a5.49,5.49,0,0,0-2.69,1.25C1652.38,863.68,1651.93,864.86,1652.29,865.37Z"/><path class="cls-6" d="M1614,975.16c-.88-1-3.3-.55-4.41-.27a5.48,5.48,0,0,0-2.69,1.24c-.35.42-.81,1.59-.45,2.11C1608.22,980.84,1614.9,976.27,1614,975.16Z"/><path class="cls-6" d="M1694.76,886.69c.63-1.22-.77-3.26-1.45-4.18a5.6,5.6,0,0,0-2.19-2c-.52-.16-1.78-.13-2.12.4C1687.3,883.58,1694.09,888,1694.76,886.69Z"/><path class="cls-6" d="M1672.33,861.27c.28.47,1.24,1.28,1.84,1.1,3-.86.89-8.65-.47-8.14s-1.58,2.95-1.68,4.09A5.46,5.46,0,0,0,1672.33,861.27Z"/><path class="cls-6" d="M1655.65,849.88c.28.46,1.25,1.27,1.85,1.1,3-.87.88-8.66-.47-8.14s-1.59,2.94-1.69,4.09A5.57,5.57,0,0,0,1655.65,849.88Z"/><path class="cls-6" d="M1687.74,863.15c2.87,1.32,6.3-6,4.94-6.49s-3.12,1.2-4,2a5.63,5.63,0,0,0-1.68,2.45C1687,861.64,1687.17,862.88,1687.74,863.15Z"/><path class="cls-6" d="M1683,945.39c.44-.32,1.14-1.36.91-1.94-1.17-2.94-8.7,0-8.05,1.29s3.09,1.28,4.24,1.26A5.45,5.45,0,0,0,1683,945.39Z"/><path class="cls-6" d="M1700,951.14a5.51,5.51,0,0,0-2-2.16c-.5-.2-1.76-.26-2.13.24-1.9,2.53,4.54,7.43,5.3,6.19S1700.6,952.11,1700,951.14Z"/><path class="cls-6" d="M1698.1,930.78c-1.21-.63-3.25.78-4.17,1.46a5.6,5.6,0,0,0-2,2.2c-.17.52-.12,1.78.4,2.11C1695,938.24,1699.39,931.44,1698.1,930.78Z"/><path class="cls-6" d="M1584,868.69c2.67,1.69,7-5.11,5.76-5.78s-3.26.78-4.17,1.47a5.44,5.44,0,0,0-2,2.19C1583.44,867.09,1583.48,868.35,1584,868.69Z"/><path class="cls-6" d="M1713.48,939.59c.11-1.36-2-2.7-3-3.28a5.58,5.58,0,0,0-2.8-1c-.54,0-1.69.57-1.79,1.19C1705.4,939.63,1713.37,941,1713.48,939.59Z"/><path class="cls-6" d="M1681.45,917.9c-1,1-.32,3.33,0,4.43a5.49,5.49,0,0,0,1.44,2.59c.43.32,1.63.69,2.12.3C1687.52,923.23,1682.49,916.9,1681.45,917.9Z"/><path class="cls-6" d="M1699.87,912.75c-1.37.07-2.41,2.32-2.85,3.38a5.49,5.49,0,0,0-.6,2.9c.12.53.8,1.6,1.42,1.61C1701,920.75,1701.31,912.67,1699.87,912.75Z"/><path class="cls-6" d="M1633.37,870.35c-3,1.1-.22,8.7,1.09,8.08s1.36-3.06,1.37-4.2a5.68,5.68,0,0,0-.54-2.92C1635,870.86,1634,870.13,1633.37,870.35Z"/><path class="cls-6" d="M1639.42,858.55c2.48,2,7.53-4.36,6.32-5.15s-3.32.44-4.3,1a5.58,5.58,0,0,0-2.21,2C1639,856.91,1638.93,858.17,1639.42,858.55Z"/><path class="cls-6" d="M1621,855.83c-.66,1.2.7,3.27,1.36,4.21a5.61,5.61,0,0,0,2.15,2c.51.18,1.78.16,2.12-.35C1628.43,859.09,1621.73,854.56,1621,855.83Z"/><path class="cls-6" d="M1688.3,903.16a5.54,5.54,0,0,0,2.15,2c.51.18,1.77.16,2.12-.35,1.76-2.64-4.94-7.17-5.63-5.9S1687.64,902.22,1688.3,903.16Z"/><path class="cls-6" d="M1627,848.14c3.1.61,4.7-7.32,3.26-7.47s-2.75,1.91-3.35,2.88a5.45,5.45,0,0,0-1.06,2.77C1625.85,846.86,1626.34,848,1627,848.14Z"/><path class="cls-6" d="M1673.4,977c-1.37-.15-2.75,1.91-3.36,2.88a5.52,5.52,0,0,0-1,2.77c0,.54.53,1.7,1.14,1.82C1673.24,985.1,1674.83,977.18,1673.4,977Z"/><path class="cls-6" d="M1607.77,872.17c.92,1,3.32.4,4.42.07a5.48,5.48,0,0,0,2.63-1.38c.33-.42.73-1.62.35-2.11C1613.24,866.23,1606.79,871.1,1607.77,872.17Z"/><path class="cls-6" d="M1606.37,856.57a5.56,5.56,0,0,0,2.89.66c.53-.11,1.61-.76,1.64-1.38.18-3.17-7.89-3.66-7.84-2.22S1605.32,856.1,1606.37,856.57Z"/><path class="cls-6" d="M1633.64,960.1c-.77,1.14.41,3.32,1,4.3a5.52,5.52,0,0,0,2,2.22c.5.22,1.75.32,2.14-.17C1640.73,964,1634.43,958.89,1633.64,960.1Z"/><path class="cls-6" d="M1600.49,920.42c-.77,1.14.41,3.32,1,4.3a5.52,5.52,0,0,0,2,2.22c.5.22,1.76.32,2.14-.17C1607.58,924.29,1601.28,919.21,1600.49,920.42Z"/><path class="cls-6" d="M1641.88,979.62c-.07-.53-.65-1.66-1.27-1.73-3.14-.39-4.19,7.63-2.74,7.68s2.61-2.1,3.14-3.11A5.41,5.41,0,0,0,1641.88,979.62Z"/><path class="cls-6" d="M1654.41,967.82a5.5,5.5,0,0,0-2.9-.64c-.53.11-1.6.78-1.63,1.4-.14,3.16,7.93,3.58,7.87,2.13S1655.46,968.27,1654.41,967.82Z"/><path class="cls-6" d="M1658.58,981.32c-.31-.44-1.33-1.18-1.92-1-3,1.09-.23,8.7,1.08,8.09s1.36-3.06,1.37-4.21A5.44,5.44,0,0,0,1658.58,981.32Z"/><path class="cls-6" d="M1709.85,898.3c1.24-.59,1.36-3.06,1.37-4.21a5.46,5.46,0,0,0-.53-2.91c-.31-.44-1.33-1.18-1.92-1C1705.8,891.3,1708.54,898.92,1709.85,898.3Z"/><path class="cls-6" d="M1660.65,949.86c-1.31-.39-3,1.38-3.82,2.23a5.53,5.53,0,0,0-1.53,2.54c-.07.54.21,1.77.8,2C1659,957.78,1662,950.27,1660.65,949.86Z"/><path class="cls-6" d="M1669.93,962.49a5.54,5.54,0,0,0-2.82.93c-.4.37-1,1.48-.69,2,1.48,2.8,8.64-1,7.86-2.16S1671.06,962.35,1669.93,962.49Z"/><path class="cls-6" d="M1569.79,885.63c-.76,1.14.42,3.32,1,4.3a5.5,5.5,0,0,0,2,2.22c.49.22,1.75.31,2.14-.18C1576.88,889.5,1570.59,884.42,1569.79,885.63Z"/><path class="cls-6" d="M1577.1,906.93c-.07-.53-.65-1.66-1.27-1.73-3.14-.39-4.19,7.63-2.74,7.68s2.61-2.1,3.14-3.11A5.5,5.5,0,0,0,1577.1,906.93Z"/><path class="cls-6" d="M1593,898c-.06-1.37-2.29-2.44-3.34-2.89a5.5,5.5,0,0,0-2.9-.64c-.53.12-1.6.78-1.63,1.4C1585,899.05,1593,899.47,1593,898Z"/><path class="cls-6" d="M1580.53,924.53a5.55,5.55,0,0,0-2.89-.63c-.53.11-1.61.77-1.64,1.39-.14,3.17,7.94,3.58,7.88,2.14S1581.59,925,1580.53,924.53Z"/><path class="cls-6" d="M1571.91,934.31a5.5,5.5,0,0,0-2.9-.64c-.53.11-1.6.78-1.63,1.4-.14,3.16,7.93,3.58,7.87,2.13S1573,934.76,1571.91,934.31Z"/><path class="cls-6" d="M1593.8,908.63c-.31-.44-1.33-1.18-1.92-1-3,1.09-.23,8.7,1.08,8.09s1.36-3.06,1.37-4.21A5.46,5.46,0,0,0,1593.8,908.63Z"/><path class="cls-6" d="M1595.87,877.17c-1.31-.39-3,1.38-3.82,2.23a5.63,5.63,0,0,0-1.54,2.54c-.06.54.22,1.77.8,2C1594.26,885.09,1597.26,877.58,1595.87,877.17Z"/><path class="cls-6" d="M1605.15,889.8a5.54,5.54,0,0,0-2.82.93c-.4.37-1,1.48-.69,2,1.48,2.8,8.64-1,7.86-2.16S1606.28,889.66,1605.15,889.8Z"/><path class="cls-6" d="M1563.16,901.46a5.56,5.56,0,0,0-2.82.92c-.4.37-1,1.48-.69,2,1.48,2.8,8.65-.95,7.86-2.17S1564.3,901.31,1563.16,901.46Z"/><path class="cls-5" d="M1183,493.72a64.64,64.64,0,0,0-25.51,4.39,52.71,52.71,0,0,0-12.71,6.31c12.08-10.55,26.85-16.84,42.12-22.8a.12.12,0,0,0,0-.23c-22.4,1.07-44.9,16.35-57.58,34.21a68.73,68.73,0,0,0-6.7,11.94,87.26,87.26,0,0,0-28.49-3.9,52.46,52.46,0,0,0-5.7-33c-.52-1.55-1.07-3.06-1.63-4.52-5-12.91-14.84-24.92-28.86-27.92a.15.15,0,0,0-.1.27A52,52,0,0,1,1079,478.65c-12.31-11.59-30.64-17.06-50.35-12.94a58.69,58.69,0,0,0-34.4,21.16c-7.75,9.24-12.86,20.65-13.61,32.37-1.85,28.5,18.46,50.28,44.2,55.76a56.77,56.77,0,0,1-17.48-2.71c-.07,0-.12.08-.07.13,7.43,6.66,20.24,8.06,30.36,4.42-3.86,12.88-4,26.18,3.79,37.86-10,8.52-25.19,13.73-36.64,5.45-6.62-4.79-5.52-18.09,2.43-20.93,3-1.06,6.5.32,8.79,2.22,6.64,5.5-4,9.61-9.44,6.72a.29.29,0,0,0-.37.41c6.15,10.39,21.47-.83,12.44-10-3.26-3.31-8.32-4.3-12.7-3.29-6.09,1.41-8.77,8.24-9.65,13.7-3.83,23.57,36.77,24.87,48.17,9.65,12.57,14.5,34.22,18.61,52.44,16.32a55.66,55.66,0,0,0,11.46-2.74c5.14,10,16.64,16.75,27.27,18.88,11.91,2.39,26.43-4.71,26.51-18.07,0-8.84-11.24-21-20.44-15.15-4.59,2.9-7.53,8.2-5.28,13.5a8.71,8.71,0,0,0,12.87,3.45.67.67,0,0,0-.22-1.21c-5.69-1.27-13.29-5.1-5.94-11.26,3.27-2.74,7.52-.4,10.14,1.93,7.9,7,3.57,17.34-4.89,21.26-13,6-28.44-4.16-36.82-14.58a43.59,43.59,0,0,0,11.9-7.41c9-8.08,12.07-18.26,13.88-29.45q1.64,1.42,3.34,2.74c8.81,9.44,20.57,16.41,32,18.1.11,0,.17-.13.07-.18a126.72,126.72,0,0,1-12.3-7.52c23.8,7.69,50.91,1.07,64.72-25.15C1243.81,546.74,1228.17,495.07,1183,493.72ZM1126,604.4a55.41,55.41,0,0,1-21.09,7.66c-9.62,1.43-19.52.38-29-1.64-10.22-2.19-26.38-7.88-32.52-18.22a54.41,54.41,0,0,1,3.38-14.87,30.23,30.23,0,0,0,1.69,4.3c4.72,9.65,17.62,14,27.08,17,13.09,4.14,40.26,8.64,52.64-2.45A58,58,0,0,1,1126,604.4Zm-43-7.22c-13.65-2.85-32.39-10.59-34.37-24.39,2-4.65,4.21-9.14,6.35-13.26a16.64,16.64,0,0,0,1.45,4c4.67,9,12.89,14.25,21.88,18.32a61.47,61.47,0,0,0,30.46,5.2c5.92-.51,12.85-2.21,16.93-6.62a61.53,61.53,0,0,0,4.22,5.84c-.27,1.69-.53,3.38-.8,5.06C1116.75,601.84,1098.26,600.36,1083,597.18Zm11.27-65.44c2.84,7.71,14.31,14.42,23.39,14.6a41.89,41.89,0,0,0,0,5.82c0,1,0,1.91,0,2.86a34.55,34.55,0,0,1-6.13.68c-5.21,0-10.56-1.78-15.31-3.72-8.71-3.56-14.83-9-18.05-17.22l.27-.13A40.71,40.71,0,0,1,1094.25,531.74ZM1075.59,536c.93,8.28,10.38,15,17.22,18.41,5.39,2.66,17.47,7,25,4.58a46,46,0,0,0,1.79,8.88c-9.54,2.29-18.57,1.73-28.43-1.32-10.78-3.34-21.89-11.08-26.81-21.55A39.86,39.86,0,0,1,1075.59,536Zm-13.39,11.65c2.9,9.45,16.45,17.64,23.51,20.78,9.17,4.08,25.2,8.2,34.94,2.32.46,1.2,1,2.38,1.54,3.56s1.3,2.55,2,3.78c-10.85,8-26.32,6.74-38.69,3-12.55-3.81-28-13.1-27.84-26.57A62.8,62.8,0,0,1,1062.2,547.66Zm57.62-12.8a55.55,55.55,0,0,0-1.81,8.07c-8.22-.76-16.37-4.62-21.24-11.16C1104.51,532,1112.49,533.52,1119.82,534.86Zm-35.49-10.08c-12,2.39-22.88,8.47-30.49,19.85a147.45,147.45,0,0,0-12.44,22.14,53.42,53.42,0,0,1-6.81.05c-1.7-.59-3.4-1.22-5-2-7.47-3.35-12.7-9-16.5-16-6.12-11.41-6.42-25.2-3.42-37.51,4.61-18.89,17.84-34.48,36.19-37.77a50.87,50.87,0,0,1,16.53,4.38C1081.5,486.59,1088.1,505.07,1084.33,524.78Zm-93,9.4c-3.38-25.53,7.45-47.64,33.81-57.77a46.12,46.12,0,0,1,10.5-2.66c-13.77,5.92-24,20.86-28.4,35.34-6.25,20.32-.06,44,16.11,55.85C1008,560.6,995.56,549.37,991.35,534.18ZM1119,616c-5.85,6-14.47,8.93-22.51,10.43-15.3,2.86-32.41-1.3-44-11.69a25.93,25.93,0,0,1-9-19.32c6,8.52,19.33,13.95,27.68,16.37a85.75,85.75,0,0,0,36.18,2.53c4.79-.7,11.39-2,16.44-4.78A29.78,29.78,0,0,1,1119,616Zm12.63-43.49a42.81,42.81,0,0,1-2.65-5.35c-3-17,.79-33,10.18-44.82a70.07,70.07,0,0,1,19.4-14.73,60.3,60.3,0,0,1,18.61-4.62,39,39,0,0,1,7.94.14,53.87,53.87,0,0,0-21.1,10.56c-11.89,9.63-19.38,25.48-20.51,40.61-1.19,16,5.32,32.12,18.44,41.7a34.72,34.72,0,0,0,11.74,5.32C1155.48,600.49,1140.67,588,1131.59,572.53Zm86.69,2.17c-5.12,12.67-13.79,20-25.24,23.78-8.48.95-16.71.76-25.6-3.53-13.23-6.37-20.39-22.88-20.41-36.87,0-26,21.35-53.49,47.9-52.57,11.21,4.11,20.94,12.67,25.59,23.41C1226.66,543.14,1223.87,560.83,1218.28,574.7Z"/><path class="cls-5" d="M1316.84,495.15c6.85-12.44,14.37-26.95,9.87-41.32-4.15-13.26-21.12-18.79-33.5-15.69-14.3,3.58-28.07,11.55-40.51,20.31a82.91,82.91,0,0,0-12.56,8.69c-38.75-16-80.73-24.76-122.33-29.66-19.26-3.48-38.55-6.47-58.24-7.25a194.78,194.78,0,0,0-24,.51,4.16,4.16,0,0,0-.39-.87c-8.43-14.63-24.3-52-47.6-45.95-26.21,6.76-24.36,52-21.66,73.68-19.33,17.53-31.36,43.61-37.3,68.26-13.41,55.66,23.78,111,76,129.27,29.53,10.31,61.56,16.44,92,23.58,27.6,6.47,55.81,11.64,84.26,11,31.85-.66,61.51-12.18,82.62-36.45,28-32.21,37.9-80.13,29.38-121.28a4,4,0,0,0-.23-.72c2.32-2.81,4.4-5.83,6.39-8.38A208.92,208.92,0,0,0,1316.84,495.15Zm-20.5,17.31c-5.17.47-9.51.59-14.78-2.18-5.84-3.07-10.56-8.5-14.34-13.77-7.35-10.23-8.49-21.23-6.37-32.52l9.8-5.65c-3.13,9.09,1,20.41,6.26,27.9,4.79,6.81,15.17,15.6,24.93,16.75C1300.24,505.85,1298.4,509.14,1296.34,512.46Zm8.15-14.22-1,1.72a35.33,35.33,0,0,1-9.27-2.43,40.32,40.32,0,0,1-14.12-11.31,37.67,37.67,0,0,1-7.34-14.74c-1.36-5.31-.6-10,.88-14.83,1.89-1.07,3.77-2.15,5.69-3.18a48.7,48.7,0,0,1,5.93-2.67c-1.61,8,1.4,17.12,5.59,23.76a31,31,0,0,0,14.57,12.07,23.08,23.08,0,0,0,5,1.35C1308.44,491.57,1306.34,495,1304.49,498.24Zm-58.06-25.43c-2.39,8.79-.2,19.5,3.71,26.95,7,13.32,18,25.71,32.73,28.89a15.19,15.19,0,0,1-7.35,3.17c-16.64,1.6-31.46-26.68-35.6-39.23C1237.4,484.93,1240.58,478.44,1246.43,472.81Zm38.77,53.92c-4.87-1.44-9.78-2.42-14.2-5.57-6.31-4.5-11.45-10.57-15.83-16.9-6.66-9.64-9.72-22.6-6.14-33.76l.34-.28q4.22-2.16,8.33-4.46c-2.34,11.43,1.94,24.58,8.36,33.71,5,7.17,17.66,18.7,27.93,16.62A58.82,58.82,0,0,1,1285.2,526.73Zm33.5-59.6a35.35,35.35,0,0,1-.81,3.86,13.81,13.81,0,0,1-3.87-1.19c-3.22-1.65-5.8-4.77-7.79-7.69a29.35,29.35,0,0,1-5.09-14.53C1311.87,447.38,1320.88,452.14,1318.7,467.13Zm-19.56-19.47c-.68,5.85,2.44,12.5,5.39,17,2,3,7.39,8.7,12.3,9.73a76.63,76.63,0,0,1-4.53,10.16c-8.2-1.49-14.49-5.09-19.62-13.21a32.44,32.44,0,0,1-4.56-21.52A49.46,49.46,0,0,1,1299.14,447.66ZM974.59,417.52a62.92,62.92,0,0,1,3.31-13.06,37.16,37.16,0,0,1,11.71-4.67,46.72,46.72,0,0,1,14.92-.68c.73.07,1.44.21,2.16.35a77.21,77.21,0,0,1,7.74,10.14c-9.18-2.41-20.92.88-28.4,4.65A61.08,61.08,0,0,0,974,422C974.18,420.52,974.35,419,974.59,417.52Zm14.27-.91a43.79,43.79,0,0,1,15.31-3.91c4.74-.37,9,1.05,13.43,2,2.06,3.49,3.93,6.94,5.56,10.05-9.49-1.93-20.84-.13-29.17,2.22-7.3,2.06-15.18,6.13-20.76,12,0-4.17.13-8.35.41-12.53C977.82,422.12,983.54,419.09,988.86,416.61Zm-.39-24.43c4.6-1.81,9.16-.35,13.49,2.93a66.52,66.52,0,0,0-13.38,1.53,36.71,36.71,0,0,0-8.21,2.79A17,17,0,0,1,988.47,392.18Zm-15.26,51c6.73-6.35,13.59-11.33,23.41-14.08a63.59,63.59,0,0,1,18.12-2,85.54,85.54,0,0,1,10.24,1.15l1.8,3.47c-16.23,2.26-32,7-46.41,15.27a81.88,81.88,0,0,0-7.26,4.78Q973.21,447.45,973.21,443.15ZM1254.3,649.41c-18.78,21.59-46.25,29.8-74,30.9-30,1.19-60.07-5.59-89-12.45C1060.39,660.55,1026,655.2,997,642a107.42,107.42,0,0,1-59.4-71.29c-9.16-36.21,6.8-78.27,32.12-104.33,43.42-44.71,120-25,173.36-15.43,19.37,3.5,39,7,58.1,12.12,10.84,3.3,21.51,7,31.91,11.23-5.52,7.67-3.52,16.95-.28,25.57,5.48,14.57,21.5,39.24,39.84,41-.49.11-1,.27-1.48.34-10,1.33-20.39-5.59-26.8-12.54-.09-.1-.22,0-.17.14,5.32,10.5,15.32,16.68,27.18,16.15a16.91,16.91,0,0,0,12.09-5.93c.38-.17.77-.36,1.14-.56C1291.3,577.17,1280.12,619.74,1254.3,649.41Z"/><path class="cls-5" d="M1236.24,606.73c-2.93-2.1-5.79-4.26-9.39-4.85a.37.37,0,0,0-.43.48,18.45,18.45,0,0,0,6.08,8.44c1.9,1.6,5.23,4,7.46,1.52C1241.8,610.32,1237.3,607.49,1236.24,606.73Z"/><path class="cls-5" d="M1225.86,617.17c-1.83-1.93-5.65-5.62-8.57-5.1-.2,0-.45.15-.47.39-.24,2.65,2.37,5.82,3.71,8,1.67,2.64,3.71,6.92,7.31,6.77a2.31,2.31,0,0,0,2-1.26C1231.1,622.41,1228.15,619.59,1225.86,617.17Z"/><path class="cls-5" d="M1204.35,620a.73.73,0,0,0-.85.55c-.67,1.85.25,4.57.92,6.32.8,2.09,1.45,5.09,3.33,6.46a2.43,2.43,0,0,0,4-1.26c.63-2.62-1.2-5.31-2.55-7.44C1208.07,622.93,1206.38,620.62,1204.35,620Z"/><path class="cls-5" d="M972.14,539.71c-1.56-1.74-4.68-1.11-6.71-.89-2.78.31-6.2.49-7.6,3.3a2.56,2.56,0,0,0,1.06,3.41c3,1.65,7.06-.65,9.88-2C969.56,543.19,973.45,541.19,972.14,539.71Z"/><path class="cls-5" d="M973,557.27c-2.87,1.35-7.58,3.06-8,6.71a2.56,2.56,0,0,0,1.92,3c3.4.88,7-2.29,9.56-4.16,1.1-.8,5.52-4.75,3.65-6.47C978.46,554.76,974.72,556.48,973,557.27Z"/><path class="cls-5" d="M989.45,567.9c-3.06-.42-5.81,2.17-7.82,4.18s-4.77,5.44-3,8.24c1.44,2.25,5.64-1.41,6.51-2.43,2.06-2.42,4.82-6.25,4.64-9.57A.47.47,0,0,0,989.45,567.9Z"/><path class="cls-5" d="M1179,616.79c-1.38-.33-2.89-.2-4.22-.66-.15,0-.21.17-.09.25,2.6,1.52,5.06,2.77,8.18,2.34a.23.23,0,0,0,.09-.43A12.11,12.11,0,0,0,1179,616.79Z"/><path class="cls-6" d="M1037.55,818.36c-19.07-8.38-40.18-12.53-58.28-22.58-24.42-13.56-40.61-36.19-59.49-55.74s-44.59-37.61-72.46-35.71c-37.14,2.53-57.52,37.52-71.51,68.13l-44.63,97.62c-7.89,17.27-15.9,36.25-9.84,54.71,7.7,23.47,34.92,37.22,60,46.84,99.68,38.21,368.41,109.55,327.83-70.35C1101.27,866.14,1073.67,834.24,1037.55,818.36Z"/><path class="cls-5" d="M633.89,529.67c-13.44-2.4-23.17,7.81-27.77,19.18-.28.76-.52,1.57-.79,2.33q-63.08-22.38-127-42.35c-27-8.38-54.23-16.32-81.74-23-17.64-4.28-36.46-9.07-54.77-8.34-4.29.17-6.43,5.87-3.14,8.74,13.14,11.41,29.45,19.35,44.86,27.17,25.19,12.78,51.13,24.1,77.12,35.15,43.48,18.49,87.5,36.51,132.32,51.53,0,.33-.12.67-.17,1-1.32,13.34.38,29.92,15.4,34.3a15.52,15.52,0,0,0,14.2-3.62c5.47-5.09,4.9-10.94,5.53-17.72.22-1.62.49-3.26.75-4.89,21,7.24,65.85,25.26,74.07-1.82,8.71-28.72-41.33-36.1-63.86-41.71,1.25-4.24,2.54-8.45,3.86-12.6,1.73-5.12,3.93-9.83,2-15.25C643.05,533.16,638.54,530.51,633.89,529.67ZM469.06,541.22c-25.19-10.6-50.21-21.66-74.76-33.68-11.93-5.84-24.58-11.8-36-19.2,12.25,1.44,24.51,4.6,36.24,7.38,26.21,6.21,52.09,13.88,77.84,21.77,43.56,13.34,86.79,27.88,129.72,43.13-1.38,4.37-2.67,8.79-3.84,13.25q-54.43-18.47-108.62-37.68c-23.85-8.43-48.95-15.6-72-26.06a.17.17,0,0,0-.16.3c22.09,12.22,47.66,19.69,71.29,28.25,36.12,13.08,72.44,25.63,108.83,38q-1.7,6.74-3,13.49C552.11,575.84,510.39,558.63,469.06,541.22Zm198.05,68.93c.07-5.83,4.24-18.48,6.4-25.3a69.79,69.79,0,0,1,10.43,4.6,38,38,0,0,0-3.68,22A63.46,63.46,0,0,1,667.11,610.15Zm-13.4-3.24a108.25,108.25,0,0,1,.84-13.56c.68-4.63,2.56-8.7,4.19-12.89,4,1,8.06,2.15,11.93,3.42-1.71,4.31-2.39,9.8-3.22,13.59-.59,2.73-2.27,8.28-2,12.37C661.6,609.05,657.61,608,653.71,606.91Zm1.75-27.26c-4.21,7.23-5,18.23-3.68,26.7-3.73-1.1-7.34-2.28-10.66-3.4.78-8.82,3-17,4.92-25.46C649,578.14,652.18,578.86,655.46,579.65Zm38.19,23.22c-.8,5.4-5.09,7.82-11.17,8.43a46.73,46.73,0,0,1,1-10.85,57.25,57.25,0,0,1,3.35-9.22C691.55,594.47,694.32,598.3,693.65,602.87ZM643.7,577a76.16,76.16,0,0,0-4.11,25.45c-3.5-1.19-6.62-2.3-9.15-3.19,1.59-8,3.54-16,5.71-24C638.32,575.8,640.88,576.36,643.7,577Zm-10.79-26c-6.27,19.71-12,40.5-14.82,61-.51,5.44.65,15.13-7.81,13.53-8.77-1.65-8.23-16-7.6-22.38a238.12,238.12,0,0,1,12.4-49.72c3.1-7.67,7.28-13.91,16.21-14C638.51,539.44,634.18,547.25,632.91,551Z"/><path class="cls-1" d="M1223.66,227c-15.2-19.93-38.34-33.41-59.05-46.77-2.52-1.62-5-3.27-7.55-4.91a5.07,5.07,0,0,0-.85-.71c-15-9.95-30.11-19.68-45.28-29.34-9.24-6-18.5-11.93-27.84-17.77a5,5,0,0,0-.87-.43l-5.43-3.44c-23.88-15.1-47.34-31.29-75.38-37.35-44.79-9.69-86.51,43.46-60.33,83.67,22.55,34.64,64.43,58.91,98.36,80.73,19.18,12.35,38.73,24.38,58.63,35.71,11,6.33,22.09,12.42,33.41,18.12l.22.12h0l.1,0c16.06,8.07,33.94,16.89,52.27,17.16,20,.29,39.44-14.88,47.87-32.36C1242.6,267.38,1238.21,246.1,1223.66,227Zm-1.58,61.48c-12.36,21.91-35.6,27.72-58.09,20.19a250.49,250.49,0,0,1-27.42-11.16,4.94,4.94,0,0,0-1.74-1.5c-20.52-10.52-40.51-22.21-60.23-34.23-5.31-3.39-10.58-6.79-15.8-10.12-24.7-15.79-49.19-32.14-72.82-49.52a5,5,0,0,0-.82-.48,311.73,311.73,0,0,1-23.48-21.09c-15.17-15.18-23.06-32.31-16-53.93C955.26,97,984.79,90,1011.78,98.46c24,7.54,44.78,23.47,65.92,36.58q35.49,22,70.25,45.13c18.92,12.83,38.68,24.37,56,39.43C1224.74,237.69,1236.7,262.58,1222.08,288.51Z"/><path class="cls-1" d="M1102.79,163.2c-13.21-8.83-27.84-20.44-44.26-21.95-13.14-1.22-22.34,10.23-28.6,20.08-7.17,11.29-15.33,25.22-13.06,39.11,1.91,11.67,14.45,19.67,23.19,25.91,22.61,16.12,53.92,42.74,77.89,14,9.82-11.76,19.46-26.66,17-42.65C1132.5,182.05,1114.57,171.2,1102.79,163.2ZM1113,232.09c-19.45,26-45.48,2.17-64.72-11.2-7.71-5.37-17-10.93-21.47-19.53-4.91-9.53,3.93-23.1,8.37-30.92,5.51-9.68,12.37-21,25-19.84,13.25,1.22,26.77,13,37.37,20.08,10.08,6.84,21.61,13.94,27.26,25.14C1130.88,208,1119.81,222.93,1113,232.09Z"/><path class="cls-1" d="M1038.28,180.77c3.34-7.41,8.9-13.53,12.87-20.56,0-.08-.05-.18-.12-.12-9.77,9.11-21.87,24.74-18.76,39,.07.29.54.37.62,0C1034.57,192.89,1035.6,186.73,1038.28,180.77Z"/><path class="cls-1" d="M1045.62,180.51a.09.09,0,0,0-.15-.1c-6,5.92-10.14,19.29-6.8,27.34.1.24.41.13.45-.08,1-4.89.68-9.92,1.8-14.86C1041.9,188.46,1043.8,184.54,1045.62,180.51Z"/><path class="cls-1" d="M1047.35,190.76a.14.14,0,0,0-.25-.09c-3.71,5.19-6.74,15.49-4,21.59a.31.31,0,0,0,.57,0c1.4-2.92,1.27-6.21,1.67-9.38C1045.85,198.8,1047,194.84,1047.35,190.76Z"/><path class="cls-1" d="M1050.43,201.43c0-.1-.18-.16-.24-.05a21.92,21.92,0,0,0-2,6.84c-.38,2.2-1.15,5.27.39,7.13a.38.38,0,0,0,.54.05c1.52-1.6,1.19-3.93,1.36-6A27.15,27.15,0,0,0,1050.43,201.43Z"/><path class="cls-1" d="M1054.5,211.41a.13.13,0,0,0-.25,0c-1,2.48-2,5.13-1.37,7.85a1,1,0,0,0,1.86-.34C1054.44,216.4,1054.89,213.91,1054.5,211.41Z"/><path class="cls-1" d="M1046.61,178.46c1.48-.55,2-2.73,2.25-4.15a.12.12,0,0,0-.2-.1c-1,1-2.44,2.51-2.44,4A.27.27,0,0,0,1046.61,178.46Z"/><path class="cls-1" d="M953.26,140.32c.55-12.31,6.77-24,14.67-33.14a.13.13,0,0,0-.16-.19c-11.61,6.34-16.87,20.52-18,33.05-1.36,14.29,6.68,27.58,17.9,35.82.28.2.72-.13.53-.44C961.31,163.65,952.6,154.86,953.26,140.32Z"/><path class="cls-1" d="M969.58,177.51a.14.14,0,0,0-.21.18,14.49,14.49,0,0,0,6.56,6.25c.17.09.42-.05.32-.27C974.8,180.87,972.24,179.09,969.58,177.51Z"/><path class="cls-1" d="M1204.39,231.29c-.08-.07-.2,0-.16.13,4.51,8.92,10.77,16.63,13.84,26.3,4.42,13.92-3.4,24.91-10,36.52-.15.28.17.64.44.4,10.11-9.14,16.52-19.76,14.18-33.77C1220.84,249.72,1213,238.38,1204.39,231.29Z"/><path class="cls-1" d="M1206,296.59a6.42,6.42,0,0,0-3.42,3.45c-.06.15.07.26.21.25,1.69-.1,2.89-2,3.51-3.44C1206.34,296.67,1206.12,296.53,1206,296.59Z"/><path class="cls-3" d="M1424.41,854.65c-15.92-12.72-2.73-19.21-5.47-34.37-1.75-9.74-8-16.07-16.61-19.66,1.83-4.86,3.14-9.92,2.51-15.57-3.28-29.35-34.91-39.91-59.75-38.56-44.83,2.43-154.27,36.46-117.39,101.31a35.68,35.68,0,0,0,5.51,7.2c-4.57,7.4-7.45,16.83-3.44,25,3,6.22,7.19,10.81,11.89,15.84,8,8.5,2,23.73,1.17,33.79-1.46,17.81,22,37.17,38.85,31.58a22.86,22.86,0,0,0,9,9.38c12.86,6.83,25.57,4.1,39.33,1.73,20.44-3.52,40.7-7.56,60.51-13.76,11.57-3.62,22.42-7.8,28.34-19,5.21-9.91,1.84-23.07-1.14-33.29C1433.73,891.83,1443.87,870.19,1424.41,854.65Zm-171.5,75.28c-.85-7.73,2.95-16.37,3.49-24.21.26-3.87-1.66-9.16-4-12.12-9-11.2-16.3-18.91-12.2-32.47,7.49,5.86,15.71,11.06,20.61,19.81,9.11,16.27,10.59,40.65,14.09,58.81a112.89,112.89,0,0,0,3,12.32C1266.34,954.39,1254,939.89,1252.91,929.93Zm134.93,17.89a395.31,395.31,0,0,1-48.25,11.6c-13.51,2.5-33.55,9.8-45.54-.44-9.29-7.93-10-30.59-12.37-41.89-4.76-23-8.08-46.14-28.2-60.76-15.42-11.19-24.31-22.12-20.37-42.34,3-15.11,20.76-26.69,32.87-33.66,24.37-14,62.1-23.49,90.16-23a39.79,39.79,0,0,1,32.78,17.41c10.53,15.58.37,28.34-3.94,43.48-2.36,8.29.09,17.48,2.08,25.53.56,2.27,1.12,4.52,1.67,6.77,3.13,22.69,14.38,43.12,20,65.3C1413.45,934.43,1403.91,942.7,1387.84,947.82Zm26.44-52.23c-3.92-11.18-8.58-22-12.51-33.18-3.22-12.69-6.29-25.65-6.5-38.17-.09-5.74,1.81-10.92,4-16.06,19.62,12-1.12,30.37,10.73,46.4,5.28,7.15,15.41,9.23,16.46,19.32C1427.4,883.5,1419.33,888.88,1414.28,895.59Z"/><path class="cls-3" d="M1313.21,771.05c-18,5-35,11.24-50.49,22.06-10.14,7.1-25.53,20.82-25.45,34.43,0,.12.18.19.24.07,7.43-14.47,18.06-25.69,31.64-34.65s29.63-14.06,44.36-21.16A.41.41,0,0,0,1313.21,771.05Z"/><path class="cls-3" d="M1320.88,769.48a18.68,18.68,0,0,0,4.28-1.65.19.19,0,0,0-.1-.36,13.22,13.22,0,0,0-4.48.8,10.79,10.79,0,0,0-4.2,1.91.07.07,0,0,0,0,.13A11.6,11.6,0,0,0,1320.88,769.48Z"/><path class="cls-3" d="M1400.83,931c-13.11,4.59-26.3,8.91-39.78,12.3-13.75,3.46-27.68,6.21-40.7,12-.13.06,0,.24.09.22a442.35,442.35,0,0,0,44.31-8.85c12.85-3.23,25.84-6.73,36.45-15C1401.51,931.39,1401.19,930.83,1400.83,931Z"/><rect class="cls-7" width="1920" height="1080"/></svg>